<svg width="39" height="44" viewBox="0 0 39 44" fill="none" xmlns="http://www.w3.org/2000/svg">
<path fill-rule="evenodd" clip-rule="evenodd" d="M19.9655 1.4479C19.4605 1.34403 18.9396 1.34403 18.4345 1.4479C17.8507 1.56797 17.3289 1.86023 16.9141 2.09258L16.801 2.15574L2.74154 9.96657C2.70267 9.98816 2.66262 10.0102 2.62158 10.0328C2.18245 10.2747 1.6303 10.5788 1.20628 11.0389C0.839687 11.4368 0.562258 11.9082 0.392548 12.4219C0.196252 13.016 0.198549 13.6464 0.200375 14.1477C0.200546 14.1946 0.200713 14.2403 0.200713 14.2847V29.7067C0.200713 29.7511 0.200546 29.7969 0.200375 29.8437C0.198549 30.3451 0.196252 30.9754 0.392548 31.5695C0.562259 32.0832 0.839689 32.5547 1.20628 32.9525C1.6303 33.4126 2.18245 33.7167 2.62158 33.9586C2.66262 33.9812 2.70268 34.0033 2.74154 34.0249L16.801 41.8357L16.9141 41.8988C17.3289 42.1312 17.8507 42.4235 18.4345 42.5435C18.9396 42.6474 19.4605 42.6474 19.9655 42.5435C20.5493 42.4235 21.0711 42.1312 21.4859 41.8988L21.599 41.8357L35.6585 34.0249C35.6757 34.0153 35.6931 34.0057 35.7107 33.9959C35.733 33.9837 35.7555 33.9712 35.7784 33.9586C36.2176 33.7167 36.7697 33.4126 37.1937 32.9525C37.5603 32.5547 37.8378 32.0832 38.0075 31.5695C38.2038 30.9754 38.2015 30.3451 38.1996 29.8437C38.1995 29.7969 38.1993 29.7511 38.1993 29.7067V14.2847C38.1993 14.2403 38.1995 14.1946 38.1996 14.1477C38.2015 13.6464 38.2038 13.016 38.0075 12.4219C37.8378 11.9082 37.5603 11.4367 37.1937 11.0389C36.7697 10.5788 36.2176 10.2747 35.7784 10.0328L35.7769 10.032C35.7364 10.0097 35.6969 9.98788 35.6585 9.96657L21.599 2.15574L21.4859 2.09257C21.0711 1.86022 20.5493 1.56797 19.9655 1.4479ZM18.6464 5.47742C18.9343 5.31746 19.0813 5.23664 19.1909 5.18376L19.2 5.17941L19.2091 5.18376C19.3187 5.23664 19.4657 5.31746 19.7536 5.47742L32.3871 12.496L19.2 19.8222L6.01286 12.4961L18.6464 5.47742ZM4.00057 15.725L17.3 23.1136L17.3001 37.766L4.58692 30.7032C4.28302 30.5343 4.12786 30.4472 4.019 30.3779L4.00981 30.372L4.00912 30.3611C4.00136 30.2323 4.00057 30.0543 4.00057 29.7067V15.725Z" fill="#101828"/>
</svg>
