<svg width="45" height="45" viewBox="0 0 45 45" fill="none" xmlns="http://www.w3.org/2000/svg">
<circle cx="22.6" cy="22.2499" r="20.5" stroke="#6927DA" stroke-width="3"/>
<path d="M37.0957 7.75427C39.1071 9.76568 39.7309 13.1628 38.6473 17.3769C37.5733 21.5531 34.871 26.2424 30.7317 30.3817C26.5924 34.5209 21.9031 37.2233 17.7269 38.2973C13.5128 39.3809 10.1157 38.7571 8.10428 36.7456C6.09287 34.7342 5.46903 31.3371 6.55265 27.1231C7.62665 22.9468 10.329 18.2575 14.4682 14.1182C18.6075 9.97897 23.2968 7.27664 27.4731 6.20264C31.6872 5.11902 35.0842 5.74286 37.0957 7.75427Z" stroke="#6927DA" stroke-width="3"/>
<path d="M8.10412 7.75426C10.1155 5.74285 13.5126 5.11901 17.7267 6.20263C21.903 7.27662 26.5923 9.97896 30.7315 14.1182C34.8708 18.2575 37.5731 22.9468 38.6471 27.123C39.7308 31.3371 39.1069 34.7342 37.0955 36.7456C35.0841 38.757 31.687 39.3809 27.4729 38.2973C23.2966 37.2233 18.6073 34.5209 14.4681 30.3817C10.3288 26.2424 7.62649 21.5531 6.55249 17.3768C5.46887 13.1628 6.09271 9.76567 8.10412 7.75426Z" stroke="#6927DA" stroke-width="3"/>
</svg>
